<?xml version="1.0" encoding="utf-8"?>
<?xml-stylesheet type="text/xsl" href="rss1.xsl"?>
<rss version="2.0" xmlns:atom="http://www.w3.org/2005/Atom" xmlns:content="http://purl.org/rss/1.0/modules/content/" xmlns:dc="http://purl.org/dc/elements/1.1/" xmlns:media="http://search.yahoo.com/mrss/">
<channel>
 <title>Getty</title>
 <link>http://www.gettyimg.com/</link>
 <atom:link href="http://www.gettyimg.com/" rel="self" type="application/rss+xml" />

 
                <item>
                <title><![CDATA[【Requests】[REQ AUD] - Big Pun album (Qobuz)]]></title>
                <link><![CDATA[https://sharemania.us/threads/big-pun-album-qobuz.219763/]]></link>
                <description><![CDATA[<article>
<blockquote class="messageText SelectQuoteContainer ugc baseHtml">
please help file album this thank<br>
<br>
<a href="https://www.qobuz.com/us-en/album/still-not-a-player-ep-big-pun/u0dacjiqtftca" target="_blank" class="externalLink" rel="nofollow">https://www.qobuz.com/us-en/album/still-not-a-player-ep-big-pun/u0dacjiqtftca</a><br>
<br>
<a href="https://www.qobuz.com/us-en/album/twinz-deep-cover-98-feat-fat-joe-ep-big-pun/yw2v5s1igfuic" target="_blank" class="externalLink" rel="nofollow">https://www.qobuz.com/us-en/album/twinz-deep-cover-98-feat-fat-joe-ep-big-pun/yw2v5s1igfuic</a><br>
<br>
<a href="https://www.qobuz.com/us-en/album/im-not-a-player-ep-big-pun/z67n2x1jzfjac" target="_blank" class="externalLink" rel="nofollow">https://www.qobuz.com/us-en/album/im-not-a-player-ep-big-pun/z67n2x1jzfjac</a><br>
<br>
<a href="https://www.qobuz.com/us-en/album/yeah-baby-big-pun/a10zxpha8udgc" target="_blank" class="externalLink" rel="nofollow">https://www.qobuz.com/us-en/album/yeah-baby-big-pun/a10zxpha8udgc</a><br>
<br>
<a href="https://www.qobuz.com/us-en/album/endangered-species-big-pun/0088561196325" target="_blank" class="externalLink" rel="nofollow">https://www.qobuz.com/us-en/album/endangered-species-big-pun/0088561196325</a><br>
<br>
<a href="https://www.qobuz.com/us-en/album/the-dream-shatterer-ep-big-pun/ps3eafr43hz9a" target="_blank" class="externalLink" rel="nofollow">https://www.qobuz.com/us-en/album/the-dream-shatterer-ep-big-pun/ps3eafr43hz9a</a><br>
<br>
<a href="https://www.qobuz.com/us-en/album/yeah-baby-big-pun/ftznks5pmzu4b" target="_blank" class="externalLink" rel="nofollow">https://www.qobuz.com/us-en/album/yeah-baby-big-pun/ftznks5pmzu4b</a><br>
<br>
<a href="https://www.qobuz.com/us-en/album/sex-money-thugs-big-pun/td6dts84a4nib" target="_blank" class="externalLink" rel="nofollow">https://www.qobuz.com/us-en/album/sex-money-thugs-big-pun/td6dts84a4nib</a><br>
<br>
<a href="https://www.qobuz.com/us-en/album/dj-chill-tribute-to-big-moe-big-moe-dj-chill/l6gpw9eafmpla" target="_blank" class="externalLink" rel="nofollow">https://www.qobuz.com/us-en/album/dj-chill-tribute-to-big-moe-big-moe-dj-chill/l6gpw9eafmpla</a>
<div class="messageTextEndMarker">&nbsp;</div>
</blockquote>
</article>]]></description>
                <author><![CDATA[konato]]></author>
                </item>

                
                <item>
                <title><![CDATA[【HD Live Performances】WEB-RiP - La Zarra - Évidemment - C à vous la suite [10-04-23] - France5 HD IPTV 1080p]]></title>
                <link><![CDATA[https://sharemania.us/threads/la-zarra-%C3%89videmment-c-%C3%A0-vous-la-suite-10-04-23-france5-hd-iptv-1080p.219764/]]></link>
                <description><![CDATA[<article>
<blockquote class="messageText SelectQuoteContainer ugc baseHtml">

<img src="https://i.imgur.com/g2dyWxV.png" class="bbCodeImage LbImage" alt="[​IMG]" data-url="https://i.imgur.com/g2dyWxV.png" style=""><br>
<br>
<div class="bbCodeBlock bbCodeCode">
<div class="type">Code:</div>
<pre>General
Complete name                            : La Zarra - Évidemment - C à vous la suite [10-04-23] - France5 HD.mkv
Format                                   : Matroska
Format version                           : Version 4
File size                                : 211 MiB
Duration                                 : 3 min 50 s
Overall bit rate                         : 7 695 kb/s
Encoded date                             : UTC 2023-04-26 06:47:12
Writing application                      : mkvmerge v55.0.0 ('Waiting For Space') 64-bit
Writing library                          : libebml v1.4.2 + libmatroska v1.6.4
Video
ID                                       : 1
Format                                   : AVC
Format/Info                              : Advanced Video Codec
Format profile                           : Main@L4.2
Format settings                          : CABAC / 2 Ref Frames
Format settings, CABAC                   : Yes
Format settings, Reference frames        : 2 frames
Codec ID                                 : V_MPEG4/ISO/AVC
Duration                                 : 3 min 50 s
Bit rate                                 : 7 435 kb/s
Width                                    : 1 920 pixels
Height                                   : 1 080 pixels
Display aspect ratio                     : 16:9
Frame rate mode                          : Constant
Frame rate                               : 50.000 FPS
Color space                              : YUV
Chroma subsampling                       : 4:2:0
Bit depth                                : 8 bits
Scan type                                : Progressive
Bits/(Pixel*Frame)                       : 0.072
Stream size                              : 204 MiB (97%)
Language                                 : French
Default                                  : Yes
Forced                                   : No
Audio
ID                                       : 2
Format                                   : E-AC-3
Format/Info                              : Enhanced AC-3
Commercial name                          : Dolby Digital Plus
Codec ID                                 : A_EAC3
Duration                                 : 3 min 50 s
Bit rate mode                            : Constant
Bit rate                                 : 256 kb/s
Channel(s)                               : 6 channels
Channel layout                           : L R C LFE Ls Rs
Sampling rate                            : 48.0 kHz
Frame rate                               : 31.250 FPS (1536 SPF)
Compression mode                         : Lossy
Stream size                              : 7.03 MiB (3%)
Language                                 : French
Service kind                             : Complete Main
Default                                  : Yes
Forced                                   : No
</pre>
</div>
<div class="bbCodeBlock bbCodeVfcHH HiddenContent">
<div class="attribution type">Hidden Content:</div>
<blockquote>You must either reply or click 'Like' to see the hidden information contained here.</blockquote>
</div>
<div class="messageTextEndMarker">&nbsp;</div>
</blockquote>
</article>]]></description>
                <author><![CDATA[LLAVE1]]></author>
                </item>

                </channel></rss>